<svg width="2000" height="767" viewBox="0 0 2000 767" fill="none" xmlns="http://www.w3.org/2000/svg">
<path d="M89.1035 554.448C116.631 566.283 147.54 572.201 181.829 572.201C216.118 572.201 249.562 565.317 276.004 551.549C303.049 537.299 323.332 518.7 337.096 495.513C351.343 472.446 358.346 447.809 358.346 421.965C358.346 396.12 350.74 363.754 335.406 344.673C320.676 324.988 302.566 310.616 280.954 301.317C259.825 292.018 232.418 282.719 198.491 273.42C172.895 266.536 152.852 260.135 138.123 254.217C123.393 248.421 111.078 240.45 101.298 230.668C92.0012 220.402 87.2925 207.359 87.2925 191.659C87.2925 168.593 94.8989 150.96 109.991 138.642C125.204 126.445 144.884 120.285 168.91 120.285C192.937 120.285 216.843 126.928 232.901 140.091C249.079 153.376 257.893 169.197 259.342 188.036H352.068C348.566 144.801 330.939 110.986 299.064 86.3494C267.673 61.3503 227.226 48.7904 177.603 48.7904C127.981 48.7904 112.164 54.5873 85.4814 66.5434C59.0401 78.3787 38.3942 95.2863 23.6644 117.387C8.9345 139.487 1.56957 165.332 1.56957 194.679C1.56957 224.025 8.9345 252.164 23.6644 271.246C38.3942 290.448 56.1425 304.699 76.6677 313.998C97.7966 322.814 124.962 331.751 158.406 340.446C184.848 347.33 205.493 353.731 220.223 359.648C235.436 365.445 247.872 373.899 257.772 384.647C268.035 395.396 273.227 409.405 273.227 426.554C273.227 443.703 265.137 466.77 248.838 481.02C232.659 494.788 210.081 501.672 181.105 501.672C152.128 501.672 131.361 494.667 115.666 480.417C100.453 466.166 91.8805 448.051 89.8279 425.95H0C0 455.418 7.84787 481.141 23.5436 503.242C39.2394 525.343 60.8512 542.492 88.3791 554.689H88.8621L89.1035 554.448ZM529.671 547.805C560.58 564.955 595.11 573.65 633.504 573.65C671.899 573.65 707.637 564.955 739.511 547.805C771.989 530.052 797.344 505.295 816.179 473.412C834.772 441.529 844.069 404.816 844.069 363.754C844.069 322.693 835.014 285.859 816.782 254.097C798.551 222.335 773.8 197.698 742.409 180.549C711.017 163.4 675.883 154.704 637.126 154.704C598.37 154.704 563.236 163.4 531.844 180.549C500.453 197.698 475.702 222.335 457.471 254.097C439.239 285.98 430.184 322.693 430.184 363.754C430.184 404.816 438.998 442.254 456.625 474.257C474.374 505.657 498.521 530.294 529.55 547.805H529.671ZM693.873 485.247C675.279 495.513 655.116 500.706 633.504 500.706C599.698 500.706 571.325 488.87 548.868 465.321C526.773 441.288 515.786 407.473 515.786 363.634C515.786 319.795 521.219 309.288 531.965 289.24C542.711 268.589 557.199 253.131 575.309 242.744C593.903 232.479 614.066 227.286 635.678 227.286C657.289 227.286 677.452 232.479 696.046 242.744C714.639 253.01 729.731 268.589 740.96 289.24C752.309 309.288 757.863 334.166 757.863 363.634C757.863 393.101 752.068 418.1 740.115 438.752C728.283 459.403 712.828 474.861 693.631 485.247H693.873ZM1173.68 173.665C1149.65 160.863 1121.88 154.463 1090.49 154.463C1059.1 154.463 1022.76 163.279 993.42 180.911C964.443 198.06 941.382 222.455 924.238 253.855C907.576 285.255 899.245 321.365 899.245 362.064C899.245 402.763 907.576 439.355 924.238 471.721C941.382 503.604 964.443 528.724 993.42 546.839C1022.76 564.592 1055.24 573.288 1090.49 573.288C1125.75 573.288 1148.93 566.887 1172.95 554.085C1197.46 540.801 1216.9 524.618 1231.15 505.536V573.288C1231.15 612.537 1220.65 642.488 1199.52 663.139C1178.87 683.791 1151.58 694.056 1117.78 694.056C1083.97 694.056 1063.69 687.414 1042.68 674.25C1022.03 661.448 1008.63 644.541 1002.23 623.406H919.046C923.996 667.608 944.642 702.51 980.863 727.992C1017.2 754.078 1062.84 767 1117.78 767C1172.71 767 1194.33 758.667 1223.79 742.001C1253.73 725.335 1276.67 702.268 1292.36 672.801C1308.06 643.816 1315.91 610.605 1315.91 573.408V160.984H1231.27V219.919C1217.51 201.321 1198.43 185.863 1173.8 173.423L1173.56 173.665H1173.68ZM1213.52 290.81C1225.35 311.462 1231.27 335.736 1231.27 363.754C1231.27 391.773 1225.35 416.289 1213.52 437.302C1202.17 457.954 1187.32 473.654 1168.61 484.402C1150.02 495.15 1129.85 500.585 1108.24 500.585C1086.63 500.585 1066.95 495.15 1047.87 484.402C1029.28 473.05 1013.95 456.867 1002.23 435.853C990.884 414.719 985.331 390.203 985.331 362.305C985.331 334.408 990.884 310.254 1002.23 290.206C1014.07 269.555 1029.28 254.097 1047.87 243.711C1066.47 232.962 1086.63 227.528 1108.24 227.528C1129.85 227.528 1150.02 232.962 1168.61 243.711C1187.2 254.459 1202.29 270.159 1213.52 290.81ZM1716.15 174.51C1691.16 161.226 1662.66 154.704 1630.79 154.704C1598.91 154.704 1583.94 159.414 1562.21 168.713C1541.08 178.013 1523.57 191.056 1509.93 207.722V161.226H1426.02V567.008H1509.93V340.205C1509.93 303.853 1518.99 276.197 1537.22 256.995C1555.81 237.31 1580.8 227.528 1612.32 227.528C1643.83 227.528 1668.46 237.431 1686.69 256.995C1704.8 276.197 1713.98 303.853 1713.98 340.205V567.008H1797.16V327.765C1797.16 290.931 1790.16 259.531 1775.91 233.566C1761.67 207.48 1741.87 187.916 1716.27 174.631L1716.15 174.51ZM1908.72 92.0255C1918.99 102.291 1931.78 107.484 1947 107.484C1962.21 107.484 1974.28 102.291 1984.55 92.0255C1994.81 81.7602 2000 68.9588 2000 53.7419C2000 38.5251 1994.81 25.8444 1984.55 15.4584C1974.28 5.19304 1961.61 0 1947 0C1932.39 0 1919.11 5.19304 1908.72 15.4584C1898.46 25.7237 1893.27 38.5251 1893.27 53.7419C1893.27 68.9588 1898.46 81.6394 1908.72 92.0255ZM1988.05 567.008V161.226H1904.14V567.008H1988.05Z" fill="#00FF9D"/>
</svg>
